<svg width="20" height="20" viewBox="0 0 20 20" fill="none" xmlns="http://www.w3.org/2000/svg"><g id="close-circle"><path id="Ellipse 757 (Stroke)" fill-rule="evenodd" clip-rule="evenodd" d="M9.99999 2.29163C5.74279 2.29163 2.29166 5.74276 2.29166 9.99996C2.29166 14.2572 5.74279 17.7083 9.99999 17.7083C14.2572 17.7083 17.7083 14.2572 17.7083 9.99996C17.7083 5.74276 14.2572 2.29163 9.99999 2.29163ZM1.04166 9.99996C1.04166 5.05241 5.05244 1.04163 9.99999 1.04163C14.9475 1.04163 18.9583 5.05241 18.9583 9.99996C18.9583 14.9475 14.9475 18.9583 9.99999 18.9583C5.05244 18.9583 1.04166 14.9475 1.04166 9.99996Z" fill="#DE350B"/><path id="Vector 1185 (Stroke)" fill-rule="evenodd" clip-rule="evenodd" d="M7.05806 7.05806C7.30214 6.81398 7.69786 6.81398 7.94194 7.05806L10 9.11612L12.0581 7.05806C12.3021 6.81398 12.6979 6.81398 12.9419 7.05806C13.186 7.30214 13.186 7.69786 12.9419 7.94194L10.8839 10L12.9419 12.0581C13.186 12.3021 13.186 12.6979 12.9419 12.9419C12.6979 13.186 12.3021 13.186 12.0581 12.9419L10 10.8839L7.94194 12.9419C7.69786 13.186 7.30214 13.186 7.05806 12.9419C6.81398 12.6979 6.81398 12.3021 7.05806 12.0581L9.11612 10L7.05806 7.94194C6.81398 7.69786 6.81398 7.30214 7.05806 7.05806Z" fill="#DE350B"/></g></svg>