<svg width="20" height="20" viewBox="0 0 20 20" fill="none" xmlns="http://www.w3.org/2000/svg"><path fill-rule="evenodd" clip-rule="evenodd" d="M10 2.292a7.708 7.708 0 1 0 0 15.417 7.708 7.708 0 0 0 0-15.417ZM1.042 10a8.958 8.958 0 1 1 17.916 0 8.958 8.958 0 0 1-17.916 0Z" fill="#2E2B40"/><path fill-rule="evenodd" clip-rule="evenodd" d="M6.225 6.225a.625.625 0 0 1 .884 0L10 9.116l2.891-2.89a.625.625 0 0 1 .884.883L10.884 10l2.891 2.892a.625.625 0 0 1-.884.884L10 10.884l-2.891 2.892a.625.625 0 1 1-.884-.884L9.116 10 6.225 7.11a.625.625 0 0 1 0-.884Z" fill="#2E2B40"/></svg>