<svg width="24" height="24" viewBox="0 0 24 24" fill="none" xmlns="http://www.w3.org/2000/svg"><path fill-rule="evenodd" clip-rule="evenodd" d="M4 3.25a.75.75 0 0 1 .75.75v14c0 .69.56 1.25 1.25 1.25h14a.75.75 0 0 1 0 1.5H6A2.75 2.75 0 0 1 3.25 18V4A.75.75 0 0 1 4 3.25Zm9 2a.75.75 0 0 1 .75.75v10a.75.75 0 0 1-1.5 0V6a.75.75 0 0 1 .75-.75Zm-4 3a.75.75 0 0 1 .75.75v7a.75.75 0 0 1-1.5 0V9A.75.75 0 0 1 9 8.25Zm8 3a.75.75 0 0 1 .75.75v4a.75.75 0 0 1-1.5 0v-4a.75.75 0 0 1 .75-.75Z" fill="#616189"/></svg>