<svg width="24" height="24" viewBox="0 0 24 24" fill="none" xmlns="http://www.w3.org/2000/svg"><path fill-rule="evenodd" clip-rule="evenodd" d="M6 4.75c-.69 0-1.25.56-1.25 1.25v12c0 .69.56 1.25 1.25 1.25h12c.69 0 1.25-.56 1.25-1.25V6c0-.69-.56-1.25-1.25-1.25H6ZM3.25 6A2.75 2.75 0 0 1 6 3.25h12A2.75 2.75 0 0 1 20.75 6v12A2.75 2.75 0 0 1 18 20.75H6A2.75 2.75 0 0 1 3.25 18V6Zm3 3A.75.75 0 0 1 7 8.25h4a.75.75 0 0 1 0 1.5H7A.75.75 0 0 1 6.25 9Zm3 3a.75.75 0 0 1 .75-.75h4a.75.75 0 0 1 0 1.5h-4a.75.75 0 0 1-.75-.75Zm3 3a.75.75 0 0 1 .75-.75h4a.75.75 0 0 1 0 1.5h-4a.75.75 0 0 1-.75-.75Z" fill="#616189"/></svg>