<svg xmlns="http://www.w3.org/2000/svg" width="24" height="24" viewBox="0 0 24 24" fill="none"><path fill-rule="evenodd" clip-rule="evenodd" d="M13.286 8.25c0-.69.575-1.25 1.285-1.25h5.143C20.424 7 21 7.56 21 8.25v5c0 .69-.576 1.25-1.286 1.25s-1.285-.56-1.285-1.25v-1.982L15.104 14.5a2.624 2.624 0 0 1-3.636 0l-2.04-1.982-4.233 4.116a1.31 1.31 0 0 1-1.818 0 1.226 1.226 0 0 1 0-1.768L7.61 10.75a2.624 2.624 0 0 1 3.637 0l2.039 1.982L16.61 9.5h-2.039c-.71 0-1.285-.56-1.285-1.25" fill="#616189"/></svg>