<svg width="24" height="24" viewBox="0 0 24 24" fill="none" xmlns="http://www.w3.org/2000/svg"><g fill-rule="evenodd" clip-rule="evenodd" fill="#616189"><path d="M5.215 16.852C4.318 17.542 3.75 18.57 3.75 20a.75.75 0 0 1-1.5 0c0-1.884.776-3.356 2.05-4.337C5.55 14.7 7.227 14.25 9 14.25c1.773 0 3.45.45 4.7 1.413 1.274.98 2.05 2.453 2.05 4.337a.75.75 0 0 1-1.5 0c0-1.43-.568-2.458-1.465-3.148-.92-.709-2.245-1.102-3.785-1.102s-2.865.393-3.785 1.102ZM15 10.75c-.648 0-1.262.07-1.825.205a.75.75 0 1 1-.35-1.458A9.32 9.32 0 0 1 15 9.25c1.773 0 3.45.45 4.7 1.413 1.274.98 2.05 2.453 2.05 4.337a.75.75 0 0 1-1.5 0c0-1.43-.567-2.458-1.465-3.148-.92-.709-2.245-1.102-3.785-1.102Z"/><path d="M7 9.75a2.25 2.25 0 1 0 0 4.5 2.25 2.25 0 0 0 0-4.5ZM3.25 12a3.75 3.75 0 1 1 7.5 0 3.75 3.75 0 0 1-7.5 0ZM17 4.75a2.25 2.25 0 1 0 0 4.5 2.25 2.25 0 0 0 0-4.5ZM13.25 7a3.75 3.75 0 1 1 7.5 0 3.75 3.75 0 0 1-7.5 0Z"/></g></svg>