<svg width="24" height="24" viewBox="0 0 24 24" fill="none" xmlns="http://www.w3.org/2000/svg"><g fill-rule="evenodd" clip-rule="evenodd" fill="#616189"><path d="M9 5.75a3.25 3.25 0 1 0 0 6.5 3.25 3.25 0 0 0 0-6.5ZM4.25 9a4.75 4.75 0 1 1 9.5 0 4.75 4.75 0 0 1-9.5 0Z"/><path d="M9 13.75c-3.564 0-6.25 2.455-6.25 5.25a.75.75 0 0 1-1.5 0c0-3.832 3.582-6.75 7.75-6.75s7.75 2.918 7.75 6.75a.75.75 0 0 1-1.5 0c0-2.795-2.686-5.25-6.25-5.25Z"/><path d="M15 5.75a3.24 3.24 0 0 0-2.438 1.1.75.75 0 1 1-1.124-.992A4.75 4.75 0 1 1 15 13.75a.75.75 0 0 1 0-1.5 3.25 3.25 0 0 0 0-6.5Z"/><path d="M11.483 11.223a.75.75 0 0 1 1.06.025c.712.747 1.781 1.002 2.457 1.002 4.168 0 7.75 2.918 7.75 6.75a.75.75 0 1 1-1.5 0c0-2.795-2.686-5.25-6.25-5.25-.939 0-2.46-.331-3.543-1.467a.75.75 0 0 1 .026-1.06Z"/></g></svg>
