<svg width="24" height="24" viewBox="0 0 24 24" fill="none" xmlns="http://www.w3.org/2000/svg"><g id="users"><path id="Ellipse 1 (Stroke)" fill-rule="evenodd" clip-rule="evenodd" d="M9 5.75C7.20507 5.75 5.75 7.20507 5.75 9C5.75 10.7949 7.20507 12.25 9 12.25C10.7949 12.25 12.25 10.7949 12.25 9C12.25 7.20507 10.7949 5.75 9 5.75ZM4.25 9C4.25 6.37665 6.37665 4.25 9 4.25C11.6234 4.25 13.75 6.37665 13.75 9C13.75 11.6234 11.6234 13.75 9 13.75C6.37665 13.75 4.25 11.6234 4.25 9Z" fill="#434053"/><path id="Ellipse 73 (Stroke)" fill-rule="evenodd" clip-rule="evenodd" d="M9 13.75C5.43559 13.75 2.75 16.2048 2.75 19C2.75 19.4142 2.41421 19.75 2 19.75C1.58579 19.75 1.25 19.4142 1.25 19C1.25 15.1678 4.83242 12.25 9 12.25C13.1676 12.25 16.75 15.1678 16.75 19C16.75 19.4142 16.4142 19.75 16 19.75C15.5858 19.75 15.25 19.4142 15.25 19C15.25 16.2048 12.5644 13.75 9 13.75Z" fill="#434053"/><path id="Ellipse 74 (Stroke)" fill-rule="evenodd" clip-rule="evenodd" d="M15 5.75C14.0294 5.75 13.1589 6.17452 12.5623 6.85048C12.2882 7.16103 11.8143 7.19058 11.5037 6.91648C11.1932 6.64238 11.1636 6.16843 11.4377 5.85788C12.307 4.87299 13.5812 4.25 15 4.25C17.6234 4.25 19.75 6.37665 19.75 9C19.75 11.6234 17.6234 13.75 15 13.75C14.5858 13.75 14.25 13.4142 14.25 13C14.25 12.5858 14.5858 12.25 15 12.25C16.7949 12.25 18.25 10.7949 18.25 9C18.25 7.20507 16.7949 5.75 15 5.75Z" fill="#434053"/><path id="Ellipse 75 (Stroke)" fill-rule="evenodd" clip-rule="evenodd" d="M11.4826 11.2227C11.7825 10.9369 12.2572 10.9484 12.543 11.2482C13.2546 11.9951 14.3244 12.2502 15 12.2502C19.1676 12.2502 22.75 15.1679 22.75 19.0002C22.75 19.4144 22.4142 19.7502 22 19.7502C21.5858 19.7502 21.25 19.4144 21.25 19.0002C21.25 16.205 18.5644 13.7502 15 13.7502C14.0613 13.7502 12.5394 13.4189 11.457 12.283C11.1713 11.9831 11.1827 11.5084 11.4826 11.2227Z" fill="#434053"/></g></svg>