<svg width="16" height="16" viewBox="0 0 16 16" fill="none" xmlns="http://www.w3.org/2000/svg"><path fill-rule="evenodd" clip-rule="evenodd" d="M7.99935 2.5C6.43454 2.5 5.16602 3.76853 5.16602 5.33333C5.16602 6.89814 6.43454 8.16667 7.99935 8.16667C9.56416 8.16667 10.8327 6.89814 10.8327 5.33333C10.8327 3.76853 9.56416 2.5 7.99935 2.5ZM4.16602 5.33333C4.16602 3.21624 5.88226 1.5 7.99935 1.5C10.1164 1.5 11.8327 3.21624 11.8327 5.33333C11.8327 7.45043 10.1164 9.16667 7.99935 9.16667C5.88226 9.16667 4.16602 7.45043 4.16602 5.33333Z" fill="#434053"/><path fill-rule="evenodd" clip-rule="evenodd" d="M7.99935 9.16602C5.32997 9.16602 3.16602 11.33 3.16602 13.9993C3.16602 14.2755 2.94216 14.4993 2.66602 14.4993C2.38987 14.4993 2.16602 14.2755 2.16602 13.9993C2.16602 10.7777 4.77769 8.16602 7.99935 8.16602C11.221 8.16602 13.8327 10.7777 13.8327 13.9993C13.8327 14.2755 13.6088 14.4993 13.3327 14.4993C13.0565 14.4993 12.8327 14.2755 12.8327 13.9993C12.8327 11.33 10.6687 9.16602 7.99935 9.16602Z" fill="#434053"/><path fill-rule="evenodd" clip-rule="evenodd" d="M7.99935 9.16602C5.32997 9.16602 3.16602 11.33 3.16602 13.9993C3.16602 14.2755 2.94216 14.4993 2.66602 14.4993C2.38987 14.4993 2.16602 14.2755 2.16602 13.9993C2.16602 10.7777 4.77769 8.16602 7.99935 8.16602C11.221 8.16602 13.8327 10.7777 13.8327 13.9993C13.8327 14.2755 13.6088 14.4993 13.3327 14.4993C13.0565 14.4993 12.8327 14.2755 12.8327 13.9993C12.8327 11.33 10.6687 9.16602 7.99935 9.16602Z" fill="#434053"/></svg>